<svg xmlns="http://www.w3.org/2000/svg" viewBox="0 0 800 600">
  <!-- 定义渐变 -->
  <defs>
    <linearGradient id="bgGradient" x1="0%" y1="0%" x2="0%" y2="100%">
      <stop offset="0%" stop-color="#87CEEB" /> <!-- 天蓝色 -->
      <stop offset="0.5" stop-color="#FFB6C1" /> <!-- 粉色 -->
      <stop offset="100%" stop-color="#98FB98" /> <!-- 抹茶色 -->
    </linearGradient>
    
    <!-- 装饰元素的图案 -->
    <pattern id="decorPattern" width="40" height="40" patternUnits="userSpaceOnUse">
      <path d="M0,20 L40,20 M20,0 L20,40" stroke="#ffffff" stroke-width="0.5" opacity="0.1" />
    </pattern>
  </defs>
  
  <!-- 背景 -->
  <rect width="800" height="600" fill="url(#bgGradient)" />
  
  <!-- 装饰网格 -->
  <rect width="800" height="600" fill="url(#decorPattern)" />
  
  <!-- 浮动圆形装饰 -->
  <circle cx="150" cy="100" r="80" fill="#ffffff" opacity="0.05" />
  <circle cx="650" cy="500" r="120" fill="#ffffff" opacity="0.05" />
  <circle cx="700" cy="150" r="60" fill="#ffffff" opacity="0.05" />
  <circle cx="100" cy="450" r="100" fill="#ffffff" opacity="0.05" />
  
  <!-- 波浪装饰 -->
  <path d="M0,500 C100,480 200,520 300,500 C400,480 500,520 600,500 C700,480 750,520 800,500 L800,600 L0,600 Z" 
        fill="#ffffff" opacity="0.03" />
  <path d="M0,550 C150,530 250,570 350,550 C450,530 550,570 650,550 C750,530 780,570 800,550 L800,600 L0,600 Z" 
        fill="#ffffff" opacity="0.02" />
</svg>
